<?xml version="1.0" encoding="UTF-8" standalone="no"?>
<!-- Created with Inkscape (http://www.inkscape.org/) -->

<svg
   width="640"
   height="640"
   viewBox="0 0 640 640"
   version="1.1"
   id="svg1"
   inkscape:version="1.4.3 (0d15f75, 2025-12-25)"
   sodipodi:docname="java.svg"
   xmlns:inkscape="http://www.inkscape.org/namespaces/inkscape"
   xmlns:sodipodi="http://sodipodi.sourceforge.net/DTD/sodipodi-0.dtd"
   xmlns="http://www.w3.org/2000/svg"
   xmlns:svg="http://www.w3.org/2000/svg">
  <sodipodi:namedview
     id="namedview1"
     pagecolor="#ffffff"
     bordercolor="#000000"
     borderopacity="0.25"
     inkscape:showpageshadow="2"
     inkscape:pageopacity="0.0"
     inkscape:pagecheckerboard="true"
     inkscape:deskcolor="#d1d1d1"
     inkscape:document-units="px"
     inkscape:zoom="1.1201933"
     inkscape:cx="336.54907"
     inkscape:cy="311.10703"
     inkscape:window-width="1920"
     inkscape:window-height="1051"
     inkscape:window-x="-9"
     inkscape:window-y="1071"
     inkscape:window-maximized="1"
     inkscape:current-layer="layer1" />
  <defs
     id="defs1" />
  <g
     inkscape:label="Layer 1"
     inkscape:groupmode="layer"
     id="layer1">
    <path
       style="fill:#000000"
       d="m 267.50335,429.33481 c -61.49973,17.18224 37.41832,52.67789 115.72858,19.12734 -12.82741,-4.98612 -22.02737,-10.7381 -22.02737,-10.7381 -34.91885,6.60116 -51.11733,7.12028 -82.81571,3.49926 -26.1611,-2.99616 -10.8855,-11.8885 -10.8855,-11.8885 z M 373.85571,395.8163 c -46.28501,8.90516 -73.01971,8.61996 -106.88109,5.12712 -26.18354,-2.70776 -9.04295,-15.39737 -9.04295,-15.39737 -67.73238,22.4824 37.70672,47.99299 132.37247,20.30337 -10.06196,-3.54411 -16.44843,-10.03312 -16.44843,-10.03312 z m 36.27113,-194.10933 c 0.003,0 -136.92919,34.18823 -71.53285,109.55041 19.30358,22.22283 -5.06303,42.20255 -5.06303,42.20255 0,0 48.99278,-25.28629 26.49757,-56.96544 -21.01796,-29.52897 -37.12992,-44.19893 50.09831,-94.78752 z m 32.03805,260.02159 c 0,0 11.3085,9.32493 -12.45888,16.53173 -45.1891,13.6894 -188.12022,17.81673 -227.82011,0.54797 -14.25978,-6.21022 12.49414,-14.82057 20.91222,-16.63749 8.77698,-1.90024 13.78873,-1.55416 13.78873,-1.55416 -15.86842,-11.1739 -102.58394,21.95046 -44.0355,31.45165 159.64872,25.8791 291.0182,-11.65458 249.61354,-30.3397 z m -54.86973,-97.20047 c 7.67465,-5.23607 18.27496,-9.78318 18.27496,-9.78318 0,0 -30.1987,5.39949 -60.28525,7.9278 -36.8319,3.08909 -76.33952,3.69793 -96.17184,1.04465 -46.95154,-6.2775 25.74132,-23.54626 25.74132,-23.54626 0,0 -28.23759,-1.90986 -62.94814,14.88144 -41.05537,19.85155 101.5521,28.9009 175.38895,9.47555 z m 17.97374,48.53133 c -0.34608,0.9293 -1.49968,1.97395 -1.49968,1.97395 100.21264,-26.34376 63.36793,-92.86165 15.45184,-76.02549 -4.20424,1.48686 -6.40889,4.94446 -6.40889,4.94446 0,0 2.65648,-1.07029 8.5815,-2.3072 24.22241,-5.047 58.92657,32.42579 -16.12477,71.41428 z M 320.58179,339.44689 C 305.79648,306.02772 255.65971,276.79035 320.60419,225.49998 401.58375,161.58089 360.0317,120 360.0317,120 c 16.75925,66.03723 -59.12524,85.98491 -86.51684,127.11077 -18.65309,28.02288 9.1551,58.13506 47.0669,92.33612 z m 87.39807,165.82368 c -61.48371,11.57446 -137.32334,10.22539 -182.29133,2.80069 0,0 9.20958,7.62658 56.54566,10.67401 72.02313,4.60479 182.65343,-2.56356 185.26826,-36.64605 0.003,0 -5.03098,12.92033 -59.52259,23.17135 z"
       id="path1" />
  </g>
</svg>
