<?xml version="1.0" encoding="UTF-8" standalone="no"?>
<!-- Created with Inkscape (http://www.inkscape.org/) -->

<svg
   width="640"
   height="640"
   viewBox="0 0 640 640"
   version="1.1"
   id="svg1"
   inkscape:version="1.4.3 (0d15f75, 2025-12-25)"
   sodipodi:docname="jinja.svg"
   xmlns:inkscape="http://www.inkscape.org/namespaces/inkscape"
   xmlns:sodipodi="http://sodipodi.sourceforge.net/DTD/sodipodi-0.dtd"
   xmlns="http://www.w3.org/2000/svg"
   xmlns:svg="http://www.w3.org/2000/svg">
  <sodipodi:namedview
     id="namedview1"
     pagecolor="#ffffff"
     bordercolor="#000000"
     borderopacity="0.25"
     inkscape:showpageshadow="2"
     inkscape:pageopacity="0.0"
     inkscape:pagecheckerboard="true"
     inkscape:deskcolor="#d1d1d1"
     inkscape:document-units="px"
     inkscape:zoom="1.0494603"
     inkscape:cx="319.21168"
     inkscape:cy="361.61443"
     inkscape:window-width="1920"
     inkscape:window-height="1051"
     inkscape:window-x="-9"
     inkscape:window-y="1071"
     inkscape:window-maximized="1"
     inkscape:current-layer="svg1" />
  <defs
     id="defs1" />
  <path
     style="fill:#000000"
     d="m 513.54812,178.22004 h -1.45 C 441.13157,201.82 348.16506,201.82 322.33177,201.40333 l -23.89996,-0.41667 c -70.49988,-2.58333 -106.46649,-29.63328 -169.46639,-57.76657 -4.34999,-1.93333 -9.41665,1.28334 -8.93331,5.79999 0.48333,15.44998 4.58332,80.29987 53.09991,97.26651 1.69999,0.66666 3.63332,1.28333 5.33332,1.71666 2.4,0.43333 3.36666,2.36666 3.84999,3.66666 l 4.1,12.66664 c 0.73333,3 2.89999,5.56666 5.33332,5.56666 h 4.08333 c 3.61666,0 6.51665,2.58333 6.76665,5.79999 v 12.24998 c 0,1.28333 -1.21666,2.35 -2.66666,2.35 h -31.13328 c -2.89999,0 -5.31666,2.16666 -5.31666,4.73332 v 19.11664 c 0,2.56666 2.41667,4.71666 5.33333,4.71666 h 31.11661 c 1.45,0 2.66666,1.06666 2.66666,2.36666 v 5.16666 c 0,1.26666 -1.21666,2.34999 -2.66666,2.34999 h -31.13328 c -2.89999,0.2 -5.08332,2.13333 -5.08332,4.71666 v 19.1333 c 0,2.15 1.93333,4.5 4.11666,4.5 h 32.33327 c 1.46667,0 2.66667,1.08333 2.66667,2.36666 v 125.61645 c 0,6.44999 6.03332,11.81665 13.28331,11.81665 h 21.96663 c 7.23332,0 13.28331,-5.36666 13.28331,-11.83331 V 359.48639 c 0,-1.28333 1.2,-2.36666 2.66667,-2.36666 l 135.66643,-0.21666 c 1.45,0 2.66667,1.08333 2.66667,2.36666 v 126.26645 c 0,6.43333 6.03332,11.81665 13.28331,11.81665 h 21.96663 c 7.23332,0 13.26664,-5.38332 13.26664,-11.83331 V 359.05306 c 0,-1.28333 1.21667,-2.34999 2.66666,-2.34999 0,0 33.79995,-0.21667 34.28328,-0.43334 a 4.8333252,4.8333252 0 0 0 2.4,-4.08332 v -18.91664 c 0,-2.58333 -2.4,-4.71666 -5.55,-4.71666 h -33.54994 v -0.23333 h -0.25 v -7.08332 c 0,-1.3 1.21667,-2.36666 2.66666,-2.36666 h 31.13328 c 2.9,0 5.31666,-2.15 5.31666,-4.71666 V 295.0365 c 0,-2.58333 -2.41666,-4.73332 -5.33332,-4.73332 h -31.11662 c -1.44999,0 -2.66666,-1.06667 -2.66666,-2.33333 V 275.7032 c 0,-2.99999 2.9,-5.79999 6.76666,-5.79999 h 4.09999 c 2.89999,0 4.58333,-2.78333 5.31666,-5.58332 l 4.09999,-12.66665 c 0.5,-1.71666 2.16666,-3.21666 4.09999,-3.86666 31.14995,-6.86665 43.94993,-27.26662 54.56658,-59.26656 v -0.2 c 1.2,-8.16665 -4.33333,-9.66665 -6.28332,-10.08332 z m -120.71647,91.26651 v 18.66663 c 0,2.58333 -1.7,4.51666 -3.86666,4.51666 h -43.44993 c -2.16666,0 -3.86666,-1.93333 -3.86666,-4.49999 v -18.66664 c 0,-2.38333 1.66667,-4.53332 3.86666,-4.53332 h 43.44993 a 4.6666588,4.6666588 0 0 1 3.86666,4.49999 z m -89.58318,0 v 18.66663 c 0,2.36666 -1.7,4.51666 -3.86666,4.51666 h -43.43326 c -2.16666,0 -3.86666,-1.93333 -3.86666,-4.49999 v -18.66664 c 0,-2.38333 1.68333,-4.53332 3.86666,-4.53332 h 43.44993 a 4.6666588,4.6666588 0 0 1 3.86666,4.49999 z"
     id="path1" />
</svg>
