<?xml version="1.0" encoding="UTF-8" standalone="no"?>
<svg
   viewBox="0 0 640 640"
   version="1.1"
   id="svg1"
   sodipodi:docname="moon.svg"
   inkscape:version="1.4.3 (0d15f75, 2025-12-25)"
   xmlns:inkscape="http://www.inkscape.org/namespaces/inkscape"
   xmlns:sodipodi="http://sodipodi.sourceforge.net/DTD/sodipodi-0.dtd"
   xmlns="http://www.w3.org/2000/svg"
   xmlns:svg="http://www.w3.org/2000/svg">
  <defs
     id="defs1" />
  <sodipodi:namedview
     id="namedview1"
     pagecolor="#ffffff"
     bordercolor="#000000"
     borderopacity="0.25"
     inkscape:showpageshadow="2"
     inkscape:pageopacity="0.0"
     inkscape:pagecheckerboard="true"
     inkscape:deskcolor="#d1d1d1"
     inkscape:zoom="1.3015625"
     inkscape:cx="320"
     inkscape:cy="320"
     inkscape:window-width="1920"
     inkscape:window-height="1051"
     inkscape:window-x="-9"
     inkscape:window-y="1071"
     inkscape:window-maximized="1"
     inkscape:current-layer="svg1" />
  <!--!Font Awesome Free 7.2.0 by @fontawesome - https://fontawesome.com License - https://fontawesome.com/license/free Copyright 2026 Fonticons, Inc.-->
  <path
     d="m 355.66443,64 c -141.4,0 -256.000004,114.6 -256.000004,256 0,141.4 114.600004,256 256.000004,256 68.8,0 131.3,-27.2 177.3,-71.4 7.3,-7 9.4,-17.9 5.3,-27.1 -4.1,-9.2 -13.7,-14.9 -23.8,-14.1 -4.9,0.4 -9.8,0.6 -14.8,0.6 -101.6,0 -184,-82.4 -184,-184 0,-72.1 41.5,-134.6 102.1,-164.8 9.1,-4.5 14.3,-14.3 13.1,-24.4 -1.2,-10.1 -8.6,-18.3 -18.5,-20.5 -18.3,-4.1 -37.3,-6.3 -56.7,-6.3 z"
     id="path1" />
</svg>
